
        <svg xmlns="http://www.w3.org/2000/svg" xmlns:xlink="http://www.w3.org/1999/xlink" version="1.1" width="2788.8169122286704" height="3150.7468601204687" viewBox="0 0 2788.8169122286704 3150.7468601204687">
			
			<g transform="scale(7.537343006023434) translate(10, 10)">
				<defs id="SvgjsDefs1303"/><g id="SvgjsG1304" featureKey="vMvB0T-0" transform="matrix(26.676825622783042,0,0,26.676825622783042,-58.689017642172864,-135.51827212845757)" fill="#fff"><path d="M4.36 13.4 l0 6.6 l-2.16 0 l0 -14.92 l2.16 0 l0 6.12 q0.8 -0.4 1.9 -0.4 q0.4 0 1.94 0.18 q2.16 0.26 2.92 0.26 q1.16 0 2.02 -0.38 l0 -5.78 l2.18 0 l0 14.92 l-2.18 0 l0 -6.94 q-0.86 0.38 -2.02 0.38 q-0.76 0 -2.92 -0.26 q-1.54 -0.18 -1.94 -0.18 q-1.1 0 -1.9 0.4 z"/></g>
			</g>
		</svg>
	